<svg width="305" height="280" viewBox="0 0 305 280" fill="none" xmlns="http://www.w3.org/2000/svg">
<g id="Group 1">
<path id="Black Tri 2" d="M224.638 61.0156L297.464 185.236H151.812L224.638 61.0156Z" fill="white" stroke="#4B3F3B" stroke-width="6.24222" stroke-linejoin="round"/>
<path id="White Tri 1" d="M151.81 4L255.847 185.232H47.7734L151.81 4Z" fill="white" stroke="#A7A7A7" stroke-width="6.24222" stroke-linejoin="bevel"/>
<path id="Vector" d="M167.836 34.2734L140.926 67.5907M169.268 85.6789L141.041 67.7961M127.915 110L169.731 86.0523M194.85 144.725L125.805 184.191M128.466 110.42L194.704 144.595" stroke="#FFB905" stroke-width="7.28259" stroke-linecap="round"/>
<path id="Black Tri 1" d="M151.81 4L255.847 185.232H47.7734L151.81 4Z" stroke="#4B3F3B" stroke-width="6.24222" stroke-linejoin="round"/>
<path id="Black Tri 3" d="M58.1825 95.7578L110.201 185.23H6.16406L58.1825 95.7578Z" fill="white" stroke="#4B3F3B" stroke-width="6.24222" stroke-linejoin="round"/>
<g id="BOURG-D&#226;&#128;&#153;OISANS" filter="url(#filter0_d_0_1)">
<path d="M6.88766 230.688C6.14608 230.688 5.57305 230.496 5.16855 230.114C4.78653 229.71 4.59551 229.137 4.59551 228.395V209.216C4.59551 208.474 4.78653 207.912 5.16855 207.53C5.57305 207.126 6.14608 206.923 6.88766 206.923H14.9776C16.6405 206.923 18.0562 207.171 19.2248 207.665C20.3933 208.159 21.281 208.867 21.8877 209.789C22.5169 210.71 22.8315 211.811 22.8315 213.092C22.8315 214.53 22.4158 215.744 21.5843 216.732C20.7529 217.721 19.618 218.384 18.1798 218.721V218.216C19.8428 218.463 21.1349 219.092 22.0562 220.103C22.9776 221.114 23.4383 222.429 23.4383 224.047C23.4383 226.159 22.7192 227.8 21.281 228.968C19.8652 230.114 17.8877 230.688 15.3484 230.688H6.88766ZM8.74159 227.418H14.809C16.3371 227.418 17.4607 227.126 18.1798 226.541C18.8989 225.935 19.2585 225.036 19.2585 223.845C19.2585 222.631 18.8989 221.732 18.1798 221.148C17.4607 220.564 16.3371 220.272 14.809 220.272H8.74159V227.418ZM8.74159 217.002H14.236C15.7191 217.002 16.8203 216.721 17.5394 216.159C18.281 215.575 18.6517 214.721 18.6517 213.598C18.6517 212.474 18.281 211.631 17.5394 211.069C16.8203 210.485 15.7191 210.193 14.236 210.193H8.74159V217.002ZM38.4544 231.025C36.1622 231.025 34.151 230.519 32.4207 229.508C30.7128 228.496 29.3869 227.081 28.4431 225.261C27.4993 223.418 27.0274 221.261 27.0274 218.789C27.0274 216.923 27.297 215.249 27.8364 213.766C28.3757 212.26 29.1397 210.98 30.1285 209.923C31.1398 208.845 32.342 208.025 33.7353 207.463C35.151 206.878 36.724 206.586 38.4544 206.586C40.769 206.586 42.7802 207.092 44.4881 208.103C46.196 209.092 47.5218 210.496 48.4657 212.317C49.4095 214.137 49.8814 216.283 49.8814 218.755C49.8814 220.62 49.6117 222.305 49.0724 223.811C48.5331 225.317 47.7578 226.609 46.7465 227.687C45.7578 228.766 44.5555 229.598 43.1398 230.182C41.7465 230.744 40.1847 231.025 38.4544 231.025ZM38.4544 227.317C39.9151 227.317 41.151 226.98 42.1623 226.305C43.196 225.631 43.9825 224.654 44.5218 223.373C45.0836 222.092 45.3645 220.564 45.3645 218.789C45.3645 216.092 44.7578 214.002 43.5443 212.519C42.3533 211.036 40.6566 210.294 38.4544 210.294C37.0162 210.294 35.7802 210.631 34.7465 211.305C33.7128 211.957 32.915 212.923 32.3532 214.204C31.8139 215.463 31.5442 216.991 31.5442 218.789C31.5442 221.463 32.151 223.553 33.3645 225.058C34.578 226.564 36.2746 227.317 38.4544 227.317ZM64.1451 231.025C62.5047 231.025 61.0552 230.811 59.7968 230.384C58.5608 229.957 57.5159 229.328 56.662 228.496C55.808 227.643 55.1676 226.586 54.7406 225.328C54.3136 224.07 54.1002 222.609 54.1002 220.946V208.845C54.1002 208.103 54.2799 207.553 54.6395 207.193C55.0215 206.833 55.5608 206.654 56.2575 206.654C56.9541 206.654 57.4822 206.833 57.8417 207.193C58.2238 207.553 58.4148 208.103 58.4148 208.845V220.912C58.4148 223.047 58.8979 224.654 59.8642 225.732C60.853 226.789 62.28 227.317 64.1451 227.317C66.0103 227.317 67.426 226.789 68.3923 225.732C69.3586 224.654 69.8418 223.047 69.8418 220.912V208.845C69.8418 208.103 70.0216 207.553 70.3811 207.193C70.7631 206.833 71.3025 206.654 71.9991 206.654C72.6732 206.654 73.1901 206.833 73.5497 207.193C73.9317 207.553 74.1227 208.103 74.1227 208.845V220.946C74.1227 223.148 73.7407 225.002 72.9766 226.508C72.235 228.013 71.1227 229.148 69.6395 229.912C68.1564 230.654 66.3249 231.025 64.1451 231.025ZM81.312 230.957C80.6153 230.957 80.076 230.766 79.694 230.384C79.3344 229.98 79.1547 229.429 79.1547 228.732V209.114C79.1547 208.395 79.3457 207.856 79.7277 207.496C80.1097 207.114 80.649 206.923 81.3457 206.923H89.4693C92.076 206.923 94.0873 207.553 95.503 208.811C96.9188 210.047 97.6266 211.789 97.6266 214.036C97.6266 215.496 97.3008 216.755 96.6491 217.811C96.0199 218.867 95.0985 219.676 93.885 220.238C92.6716 220.8 91.1996 221.081 89.4693 221.081L89.7727 220.575H90.885C91.8064 220.575 92.6041 220.8 93.2783 221.249C93.9749 221.699 94.5817 222.407 95.0985 223.373L97.6266 228.058C97.8963 228.53 98.0199 228.991 97.9974 229.44C97.9749 229.89 97.8064 230.261 97.4918 230.553C97.1772 230.822 96.7165 230.957 96.1098 230.957C95.503 230.957 95.0086 230.834 94.6266 230.586C94.2446 230.317 93.9075 229.912 93.6154 229.373L90.2109 223.103C89.8064 222.339 89.3232 221.834 88.7614 221.586C88.2221 221.317 87.5255 221.182 86.6715 221.182H83.4693V228.732C83.4693 229.429 83.2895 229.98 82.93 230.384C82.5704 230.766 82.0311 230.957 81.312 230.957ZM83.4693 217.98H88.7277C90.2783 217.98 91.4468 217.665 92.2334 217.036C93.0423 216.384 93.4468 215.418 93.4468 214.137C93.4468 212.878 93.0423 211.935 92.2334 211.305C91.4468 210.654 90.2783 210.328 88.7277 210.328H83.4693V217.98ZM113.525 231.025C110.896 231.025 108.672 230.53 106.851 229.541C105.054 228.553 103.683 227.148 102.739 225.328C101.795 223.508 101.323 221.35 101.323 218.856C101.323 216.968 101.593 215.272 102.132 213.766C102.694 212.26 103.492 210.98 104.525 209.923C105.582 208.845 106.863 208.025 108.368 207.463C109.874 206.878 111.582 206.586 113.492 206.586C114.75 206.586 116.009 206.744 117.267 207.058C118.548 207.35 119.75 207.856 120.874 208.575C121.256 208.822 121.503 209.126 121.615 209.485C121.75 209.845 121.773 210.216 121.683 210.598C121.593 210.957 121.424 211.272 121.177 211.541C120.93 211.811 120.615 211.98 120.233 212.047C119.874 212.114 119.469 212.025 119.02 211.777C118.166 211.283 117.301 210.923 116.424 210.699C115.548 210.474 114.57 210.362 113.492 210.362C111.829 210.362 110.424 210.699 109.278 211.373C108.132 212.025 107.267 212.98 106.683 214.238C106.121 215.496 105.84 217.036 105.84 218.856C105.84 221.62 106.503 223.721 107.829 225.159C109.155 226.598 111.121 227.317 113.728 227.317C114.627 227.317 115.537 227.227 116.458 227.047C117.379 226.867 118.278 226.62 119.155 226.305L118.312 228.227V221.047H114.604C114.042 221.047 113.604 220.901 113.29 220.609C112.997 220.317 112.851 219.923 112.851 219.429C112.851 218.912 112.997 218.519 113.29 218.249C113.604 217.98 114.042 217.845 114.604 217.845H120.166C120.728 217.845 121.155 218.002 121.447 218.317C121.761 218.609 121.919 219.036 121.919 219.598V227.789C121.919 228.283 121.818 228.699 121.615 229.036C121.436 229.373 121.132 229.62 120.705 229.777C119.716 230.137 118.582 230.44 117.301 230.688C116.02 230.912 114.761 231.025 113.525 231.025ZM128.065 223.339C127.57 223.339 127.155 223.182 126.817 222.867C126.503 222.53 126.346 222.126 126.346 221.654C126.346 221.159 126.503 220.755 126.817 220.44C127.155 220.126 127.57 219.968 128.065 219.968H135.244C135.716 219.968 136.11 220.126 136.424 220.44C136.761 220.755 136.93 221.159 136.93 221.654C136.93 222.126 136.761 222.53 136.424 222.867C136.11 223.182 135.716 223.339 135.244 223.339H128.065ZM143.826 230.688C143.085 230.688 142.512 230.496 142.107 230.114C141.725 229.71 141.534 229.137 141.534 228.395V209.216C141.534 208.474 141.725 207.912 142.107 207.53C142.512 207.126 143.085 206.923 143.826 206.923H150.366C154.343 206.923 157.411 207.946 159.568 209.991C161.748 212.036 162.838 214.968 162.838 218.789C162.838 220.699 162.557 222.395 161.995 223.878C161.456 225.339 160.647 226.575 159.568 227.586C158.512 228.598 157.208 229.373 155.658 229.912C154.13 230.429 152.366 230.688 150.366 230.688H143.826ZM145.849 227.114H150.096C151.489 227.114 152.691 226.946 153.703 226.609C154.736 226.249 155.59 225.732 156.265 225.058C156.961 224.362 157.478 223.496 157.815 222.463C158.152 221.407 158.321 220.182 158.321 218.789C158.321 216.002 157.635 213.923 156.265 212.553C154.894 211.182 152.838 210.496 150.096 210.496H145.849V227.114ZM169.203 215.182C168.911 215.541 168.596 215.744 168.259 215.789C167.944 215.834 167.664 215.777 167.416 215.62C167.169 215.44 167.034 215.193 167.012 214.878C166.989 214.541 167.135 214.182 167.45 213.8C167.899 213.238 168.203 212.676 168.36 212.114C168.517 211.553 168.596 211.058 168.596 210.631L168.765 211.744C167.978 211.744 167.338 211.519 166.843 211.069C166.371 210.62 166.135 210.013 166.135 209.249C166.135 208.508 166.36 207.912 166.81 207.463C167.259 206.991 167.866 206.755 168.63 206.755C169.416 206.755 170.034 207.025 170.484 207.564C170.933 208.081 171.158 208.833 171.158 209.822C171.158 210.362 171.102 210.923 170.989 211.508C170.9 212.069 170.708 212.665 170.416 213.294C170.147 213.901 169.742 214.53 169.203 215.182ZM185.96 231.025C183.668 231.025 181.656 230.519 179.926 229.508C178.218 228.496 176.892 227.081 175.948 225.261C175.005 223.418 174.533 221.261 174.533 218.789C174.533 216.923 174.802 215.249 175.342 213.766C175.881 212.26 176.645 210.98 177.634 209.923C178.645 208.845 179.847 208.025 181.241 207.463C182.656 206.878 184.229 206.586 185.96 206.586C188.274 206.586 190.286 207.092 191.993 208.103C193.701 209.092 195.027 210.496 195.971 212.317C196.915 214.137 197.387 216.283 197.387 218.755C197.387 220.62 197.117 222.305 196.578 223.811C196.038 225.317 195.263 226.609 194.252 227.687C193.263 228.766 192.061 229.598 190.645 230.182C189.252 230.744 187.69 231.025 185.96 231.025ZM185.96 227.317C187.42 227.317 188.656 226.98 189.668 226.305C190.701 225.631 191.488 224.654 192.027 223.373C192.589 222.092 192.87 220.564 192.87 218.789C192.87 216.092 192.263 214.002 191.05 212.519C189.859 211.036 188.162 210.294 185.96 210.294C184.521 210.294 183.286 210.631 182.252 211.305C181.218 211.957 180.42 212.923 179.859 214.204C179.319 215.463 179.05 216.991 179.05 218.789C179.05 221.463 179.656 223.553 180.87 225.058C182.083 226.564 183.78 227.317 185.96 227.317ZM203.931 230.957C203.235 230.957 202.695 230.766 202.313 230.384C201.954 229.98 201.774 229.429 201.774 228.732V208.878C201.774 208.159 201.954 207.609 202.313 207.227C202.695 206.845 203.235 206.654 203.931 206.654C204.628 206.654 205.156 206.845 205.516 207.227C205.898 207.609 206.089 208.159 206.089 208.878V228.732C206.089 229.429 205.909 229.98 205.549 230.384C205.19 230.766 204.65 230.957 203.931 230.957ZM219.478 231.025C218.49 231.025 217.501 230.946 216.512 230.789C215.523 230.654 214.591 230.44 213.714 230.148C212.838 229.834 212.051 229.452 211.355 229.002C210.95 228.732 210.669 228.407 210.512 228.025C210.355 227.643 210.299 227.272 210.343 226.912C210.411 226.53 210.557 226.204 210.782 225.935C211.029 225.643 211.332 225.463 211.692 225.395C212.051 225.328 212.445 225.429 212.872 225.699C213.86 226.283 214.905 226.71 216.006 226.98C217.108 227.249 218.265 227.384 219.478 227.384C221.254 227.384 222.546 227.092 223.355 226.508C224.164 225.901 224.568 225.126 224.568 224.182C224.568 223.395 224.276 222.777 223.692 222.328C223.13 221.878 222.152 221.508 220.759 221.216L217.051 220.44C214.916 219.991 213.321 219.238 212.265 218.182C211.231 217.103 210.714 215.687 210.714 213.935C210.714 212.834 210.939 211.834 211.388 210.935C211.838 210.036 212.467 209.26 213.276 208.609C214.108 207.957 215.085 207.463 216.209 207.126C217.355 206.766 218.613 206.586 219.984 206.586C221.332 206.586 222.613 206.755 223.827 207.092C225.04 207.429 226.13 207.923 227.096 208.575C227.456 208.822 227.692 209.126 227.804 209.485C227.939 209.845 227.973 210.204 227.905 210.564C227.838 210.901 227.681 211.193 227.433 211.44C227.186 211.687 226.872 211.834 226.49 211.878C226.13 211.923 225.714 211.811 225.242 211.541C224.411 211.069 223.568 210.732 222.714 210.53C221.86 210.328 220.939 210.227 219.95 210.227C218.917 210.227 218.029 210.373 217.287 210.665C216.546 210.957 215.973 211.373 215.568 211.912C215.186 212.429 214.995 213.047 214.995 213.766C214.995 214.575 215.265 215.227 215.804 215.721C216.343 216.193 217.265 216.564 218.568 216.834L222.242 217.609C224.467 218.081 226.119 218.822 227.197 219.834C228.299 220.845 228.849 222.193 228.849 223.878C228.849 224.957 228.624 225.935 228.175 226.811C227.748 227.687 227.119 228.44 226.287 229.07C225.478 229.699 224.501 230.182 223.355 230.519C222.209 230.856 220.917 231.025 219.478 231.025ZM232.624 230.957C232.084 230.957 231.646 230.834 231.309 230.586C230.994 230.339 230.803 230.013 230.736 229.609C230.669 229.182 230.747 228.71 230.972 228.193L239.871 208.474C240.163 207.822 240.511 207.362 240.916 207.092C241.343 206.8 241.826 206.654 242.365 206.654C242.882 206.654 243.343 206.8 243.747 207.092C244.174 207.362 244.534 207.822 244.826 208.474L253.759 228.193C254.006 228.71 254.096 229.182 254.028 229.609C253.961 230.036 253.77 230.373 253.455 230.62C253.141 230.845 252.725 230.957 252.208 230.957C251.579 230.957 251.084 230.811 250.725 230.519C250.388 230.204 250.084 229.732 249.815 229.103L247.624 224.013L249.444 225.193H235.219L237.039 224.013L234.882 229.103C234.59 229.755 234.287 230.227 233.972 230.519C233.657 230.811 233.208 230.957 232.624 230.957ZM242.298 211.609L237.579 222.834L236.702 221.755H247.961L247.118 222.834L242.365 211.609H242.298ZM259.494 230.957C258.842 230.957 258.336 230.777 257.977 230.418C257.64 230.058 257.471 229.541 257.471 228.867V208.811C257.471 208.114 257.64 207.586 257.977 207.227C258.336 206.845 258.797 206.654 259.359 206.654C259.876 206.654 260.258 206.755 260.505 206.957C260.775 207.137 261.089 207.451 261.449 207.901L274.359 224.654H273.482V208.71C273.482 208.058 273.651 207.553 273.988 207.193C274.348 206.833 274.853 206.654 275.505 206.654C276.157 206.654 276.651 206.833 276.988 207.193C277.325 207.553 277.494 208.058 277.494 208.71V228.935C277.494 229.564 277.336 230.058 277.022 230.418C276.707 230.777 276.28 230.957 275.741 230.957C275.224 230.957 274.808 230.856 274.494 230.654C274.202 230.452 273.876 230.126 273.516 229.676L260.64 212.923H261.482V228.867C261.482 229.541 261.314 230.058 260.977 230.418C260.64 230.777 260.145 230.957 259.494 230.957ZM290.877 231.025C289.889 231.025 288.9 230.946 287.911 230.789C286.922 230.654 285.99 230.44 285.113 230.148C284.237 229.834 283.45 229.452 282.754 229.002C282.349 228.732 282.068 228.407 281.911 228.025C281.754 227.643 281.698 227.272 281.742 226.912C281.81 226.53 281.956 226.204 282.181 225.935C282.428 225.643 282.731 225.463 283.091 225.395C283.45 225.328 283.844 225.429 284.271 225.699C285.259 226.283 286.304 226.71 287.405 226.98C288.507 227.249 289.664 227.384 290.877 227.384C292.653 227.384 293.945 227.092 294.754 226.508C295.563 225.901 295.967 225.126 295.967 224.182C295.967 223.395 295.675 222.777 295.091 222.328C294.529 221.878 293.552 221.508 292.158 221.216L288.45 220.44C286.316 219.991 284.72 219.238 283.664 218.182C282.63 217.103 282.113 215.687 282.113 213.935C282.113 212.834 282.338 211.834 282.787 210.935C283.237 210.036 283.866 209.26 284.675 208.609C285.507 207.957 286.484 207.463 287.608 207.126C288.754 206.766 290.012 206.586 291.383 206.586C292.731 206.586 294.012 206.755 295.226 207.092C296.439 207.429 297.529 207.923 298.495 208.575C298.855 208.822 299.091 209.126 299.203 209.485C299.338 209.845 299.372 210.204 299.304 210.564C299.237 210.901 299.08 211.193 298.832 211.44C298.585 211.687 298.271 211.834 297.889 211.878C297.529 211.923 297.113 211.811 296.641 211.541C295.81 211.069 294.967 210.732 294.113 210.53C293.259 210.328 292.338 210.227 291.349 210.227C290.316 210.227 289.428 210.373 288.686 210.665C287.945 210.957 287.372 211.373 286.967 211.912C286.585 212.429 286.394 213.047 286.394 213.766C286.394 214.575 286.664 215.227 287.203 215.721C287.743 216.193 288.664 216.564 289.967 216.834L293.641 217.609C295.866 218.081 297.518 218.822 298.596 219.834C299.698 220.845 300.248 222.193 300.248 223.878C300.248 224.957 300.023 225.935 299.574 226.811C299.147 227.687 298.518 228.44 297.686 229.07C296.877 229.699 295.9 230.182 294.754 230.519C293.608 230.856 292.316 231.025 290.877 231.025Z" fill="white"/>
</g>
<g id="MOUNTAIN BASE" filter="url(#filter1_d_0_1)">
<path d="M6.87455 271.042C6.21038 271.042 5.70039 270.853 5.34458 270.473C4.98877 270.094 4.81087 269.572 4.81087 268.908V247.524C4.81087 246.836 5.00063 246.314 5.38016 245.958C5.75969 245.579 6.28154 245.389 6.94571 245.389C7.53872 245.389 8.00127 245.507 8.33335 245.745C8.68916 245.958 9.00939 246.338 9.29403 246.883L18.0824 263.144H16.9439L25.7323 246.883C26.0169 246.338 26.3253 245.958 26.6574 245.745C26.9895 245.507 27.452 245.389 28.045 245.389C28.7092 245.389 29.2192 245.579 29.575 245.958C29.9308 246.314 30.1087 246.836 30.1087 247.524V268.908C30.1087 269.572 29.9308 270.094 29.575 270.473C29.2429 270.853 28.7329 271.042 28.045 271.042C27.3809 271.042 26.8709 270.853 26.5151 270.473C26.1593 270.094 25.9814 269.572 25.9814 268.908V252.434H26.7641L19.2922 266.061C19.055 266.464 18.8059 266.761 18.545 266.951C18.2841 267.14 17.9283 267.235 17.4776 267.235C17.0269 267.235 16.6592 267.14 16.3746 266.951C16.0899 266.737 15.8409 266.441 15.6274 266.061L8.08429 252.398H8.93822V268.908C8.93822 269.572 8.76032 270.094 8.40452 270.473C8.07243 270.853 7.56244 271.042 6.87455 271.042ZM46.873 271.114C44.4535 271.114 42.3306 270.58 40.5041 269.512C38.7013 268.445 37.3018 266.951 36.3056 265.029C35.3093 263.084 34.8112 260.807 34.8112 258.198C34.8112 256.229 35.0958 254.462 35.6651 252.896C36.2344 251.307 37.0409 249.955 38.0846 248.84C39.152 247.702 40.4211 246.836 41.8917 246.243C43.3861 245.626 45.0466 245.318 46.873 245.318C49.3162 245.318 51.4392 245.851 53.242 246.919C55.0447 247.962 56.4442 249.445 57.4405 251.366C58.4367 253.288 58.9349 255.553 58.9349 258.162C58.9349 260.131 58.6502 261.91 58.0809 263.499C57.5116 265.089 56.6933 266.453 55.6259 267.591C54.5822 268.73 53.3131 269.607 51.8187 270.224C50.3481 270.817 48.6995 271.114 46.873 271.114ZM46.873 267.2C48.4149 267.2 49.7195 266.844 50.7869 266.132C51.878 265.421 52.7082 264.389 53.2775 263.037C53.8705 261.685 54.1671 260.072 54.1671 258.198C54.1671 255.351 53.5266 253.145 52.2457 251.58C50.9885 250.014 49.1976 249.232 46.873 249.232C45.3549 249.232 44.0503 249.587 42.9592 250.299C41.868 250.987 41.0259 252.007 40.4329 253.359C39.8636 254.687 39.579 256.3 39.579 258.198C39.579 261.021 40.2194 263.227 41.5003 264.816C42.7812 266.405 44.5721 267.2 46.873 267.2ZM73.991 271.114C72.2594 271.114 70.7295 270.888 69.4011 270.438C68.0965 269.987 66.9935 269.323 66.0921 268.445C65.1908 267.544 64.5147 266.429 64.064 265.1C63.6133 263.772 63.388 262.23 63.388 260.475V247.702C63.388 246.919 63.5778 246.338 63.9573 245.958C64.3605 245.579 64.9298 245.389 65.6652 245.389C66.4005 245.389 66.9579 245.579 67.3375 245.958C67.7407 246.338 67.9423 246.919 67.9423 247.702V260.439C67.9423 262.693 68.4523 264.389 69.4723 265.527C70.516 266.642 72.0222 267.2 73.991 267.2C75.9598 267.2 77.4542 266.642 78.4742 265.527C79.4942 264.389 80.0042 262.693 80.0042 260.439V247.702C80.0042 246.919 80.1939 246.338 80.5734 245.958C80.9767 245.579 81.546 245.389 82.2813 245.389C82.9929 245.389 83.5385 245.579 83.918 245.958C84.3213 246.338 84.5229 246.919 84.5229 247.702V260.475C84.5229 262.8 84.1197 264.757 83.3132 266.346C82.5304 267.935 81.3562 269.133 79.7907 269.939C78.2251 270.722 76.2919 271.114 73.991 271.114ZM91.9693 271.042C91.2814 271.042 90.7477 270.853 90.3681 270.473C90.0123 270.094 89.8344 269.548 89.8344 268.836V247.666C89.8344 246.931 90.0123 246.373 90.3681 245.994C90.7477 245.59 91.2339 245.389 91.8269 245.389C92.3725 245.389 92.7758 245.496 93.0367 245.709C93.3213 245.899 93.6534 246.231 94.0329 246.705L107.66 264.389H106.735V247.559C106.735 246.871 106.913 246.338 107.269 245.958C107.648 245.579 108.182 245.389 108.87 245.389C109.558 245.389 110.08 245.579 110.436 245.958C110.791 246.338 110.969 246.871 110.969 247.559V268.908C110.969 269.572 110.803 270.094 110.471 270.473C110.139 270.853 109.688 271.042 109.119 271.042C108.574 271.042 108.135 270.936 107.803 270.722C107.494 270.509 107.15 270.165 106.771 269.69L93.179 252.007H94.0685V268.836C94.0685 269.548 93.8906 270.094 93.5348 270.473C93.179 270.853 92.6572 271.042 91.9693 271.042ZM124.776 271.042C124.041 271.042 123.472 270.841 123.068 270.438C122.689 270.011 122.499 269.429 122.499 268.694V249.481H115.561C114.944 249.481 114.458 249.315 114.102 248.982C113.77 248.627 113.604 248.152 113.604 247.559C113.604 246.943 113.77 246.48 114.102 246.172C114.458 245.84 114.944 245.673 115.561 245.673H133.992C134.608 245.673 135.083 245.84 135.415 246.172C135.771 246.48 135.949 246.943 135.949 247.559C135.949 248.152 135.771 248.627 135.415 248.982C135.083 249.315 134.608 249.481 133.992 249.481H127.053V268.694C127.053 269.429 126.864 270.011 126.484 270.438C126.105 270.841 125.535 271.042 124.776 271.042ZM136.019 271.042C135.449 271.042 134.987 270.912 134.631 270.651C134.299 270.39 134.097 270.046 134.026 269.619C133.955 269.169 134.038 268.67 134.275 268.125L143.668 247.31C143.977 246.622 144.345 246.136 144.771 245.851C145.222 245.543 145.732 245.389 146.301 245.389C146.847 245.389 147.333 245.543 147.76 245.851C148.211 246.136 148.59 246.622 148.899 247.31L158.328 268.125C158.589 268.67 158.684 269.169 158.612 269.619C158.541 270.07 158.34 270.426 158.007 270.687C157.675 270.924 157.237 271.042 156.691 271.042C156.027 271.042 155.505 270.888 155.125 270.58C154.77 270.248 154.449 269.75 154.165 269.086L151.852 263.713L153.773 264.958H138.758L140.68 263.713L138.403 269.086C138.094 269.773 137.774 270.272 137.442 270.58C137.11 270.888 136.635 271.042 136.019 271.042ZM146.23 250.619L141.249 262.468L140.324 261.329H152.208L151.318 262.468L146.301 250.619H146.23ZM164.524 271.042C163.788 271.042 163.219 270.841 162.816 270.438C162.436 270.011 162.247 269.429 162.247 268.694V247.737C162.247 246.978 162.436 246.397 162.816 245.994C163.219 245.59 163.788 245.389 164.524 245.389C165.259 245.389 165.816 245.59 166.196 245.994C166.599 246.397 166.801 246.978 166.801 247.737V268.694C166.801 269.429 166.611 270.011 166.232 270.438C165.852 270.841 165.283 271.042 164.524 271.042ZM174.423 271.042C173.735 271.042 173.202 270.853 172.822 270.473C172.466 270.094 172.288 269.548 172.288 268.836V247.666C172.288 246.931 172.466 246.373 172.822 245.994C173.202 245.59 173.688 245.389 174.281 245.389C174.826 245.389 175.23 245.496 175.491 245.709C175.775 245.899 176.107 246.231 176.487 246.705L190.114 264.389H189.189V247.559C189.189 246.871 189.367 246.338 189.723 245.958C190.102 245.579 190.636 245.389 191.324 245.389C192.012 245.389 192.534 245.579 192.89 245.958C193.245 246.338 193.423 246.871 193.423 247.559V268.908C193.423 269.572 193.257 270.094 192.925 270.473C192.593 270.853 192.142 271.042 191.573 271.042C191.028 271.042 190.589 270.936 190.257 270.722C189.948 270.509 189.604 270.165 189.225 269.69L175.633 252.007H176.522V268.836C176.522 269.548 176.345 270.094 175.989 270.473C175.633 270.853 175.111 271.042 174.423 271.042ZM210.983 270.758C210.201 270.758 209.596 270.556 209.169 270.153C208.766 269.726 208.564 269.121 208.564 268.338V248.093C208.564 247.31 208.766 246.717 209.169 246.314C209.596 245.887 210.201 245.673 210.983 245.673H219.523C221.278 245.673 222.772 245.934 224.006 246.456C225.239 246.978 226.176 247.725 226.817 248.698C227.481 249.67 227.813 250.833 227.813 252.185C227.813 253.703 227.374 254.984 226.497 256.027C225.619 257.071 224.421 257.771 222.903 258.127V257.593C224.658 257.854 226.022 258.518 226.995 259.585C227.967 260.653 228.454 262.041 228.454 263.748C228.454 265.978 227.694 267.71 226.176 268.943C224.682 270.153 222.595 270.758 219.914 270.758H210.983ZM212.94 267.306H219.345C220.958 267.306 222.144 266.998 222.903 266.381C223.662 265.741 224.042 264.792 224.042 263.535C224.042 262.254 223.662 261.305 222.903 260.688C222.144 260.072 220.958 259.763 219.345 259.763H212.94V267.306ZM212.94 256.312H218.74C220.306 256.312 221.468 256.016 222.227 255.423C223.01 254.806 223.401 253.904 223.401 252.718C223.401 251.532 223.01 250.643 222.227 250.05C221.468 249.433 220.306 249.125 218.74 249.125H212.94V256.312ZM233.136 271.042C232.566 271.042 232.104 270.912 231.748 270.651C231.416 270.39 231.214 270.046 231.143 269.619C231.072 269.169 231.155 268.67 231.392 268.125L240.786 247.31C241.094 246.622 241.462 246.136 241.889 245.851C242.339 245.543 242.849 245.389 243.419 245.389C243.964 245.389 244.45 245.543 244.877 245.851C245.328 246.136 245.708 246.622 246.016 247.31L255.445 268.125C255.706 268.67 255.801 269.169 255.729 269.619C255.658 270.07 255.457 270.426 255.125 270.687C254.792 270.924 254.354 271.042 253.808 271.042C253.144 271.042 252.622 270.888 252.243 270.58C251.887 270.248 251.566 269.75 251.282 269.086L248.969 263.713L250.89 264.958H235.875L237.797 263.713L235.52 269.086C235.211 269.773 234.891 270.272 234.559 270.58C234.227 270.888 233.752 271.042 233.136 271.042ZM243.347 250.619L238.366 262.468L237.441 261.329H249.325L248.435 262.468L243.419 250.619H243.347ZM267.732 271.114C266.688 271.114 265.644 271.031 264.601 270.865C263.557 270.722 262.573 270.497 261.647 270.189C260.722 269.856 259.892 269.453 259.157 268.979C258.73 268.694 258.433 268.35 258.267 267.947C258.101 267.544 258.042 267.152 258.089 266.773C258.161 266.37 258.315 266.026 258.552 265.741C258.813 265.433 259.133 265.243 259.513 265.172C259.892 265.1 260.307 265.207 260.758 265.492C261.802 266.109 262.905 266.559 264.067 266.844C265.229 267.129 266.451 267.271 267.732 267.271C269.606 267.271 270.97 266.963 271.824 266.346C272.677 265.705 273.104 264.887 273.104 263.891C273.104 263.061 272.796 262.408 272.179 261.934C271.586 261.459 270.555 261.068 269.084 260.76L265.17 259.941C262.917 259.467 261.232 258.672 260.118 257.557C259.026 256.419 258.481 254.924 258.481 253.074C258.481 251.912 258.718 250.856 259.192 249.908C259.667 248.959 260.331 248.14 261.185 247.452C262.063 246.765 263.094 246.243 264.28 245.887C265.49 245.507 266.819 245.318 268.265 245.318C269.689 245.318 271.041 245.496 272.322 245.851C273.603 246.207 274.753 246.729 275.773 247.417C276.153 247.678 276.402 247.998 276.52 248.378C276.663 248.757 276.698 249.137 276.627 249.516C276.556 249.872 276.39 250.18 276.129 250.441C275.868 250.702 275.536 250.856 275.133 250.904C274.753 250.951 274.314 250.833 273.816 250.548C272.938 250.05 272.049 249.694 271.148 249.481C270.246 249.267 269.274 249.16 268.23 249.16C267.139 249.16 266.202 249.315 265.419 249.623C264.636 249.931 264.031 250.37 263.604 250.939C263.201 251.485 263 252.137 263 252.896C263 253.75 263.284 254.438 263.853 254.96C264.423 255.458 265.395 255.85 266.771 256.134L270.649 256.953C272.998 257.451 274.741 258.233 275.88 259.301C277.042 260.368 277.623 261.791 277.623 263.571C277.623 264.709 277.386 265.741 276.912 266.666C276.461 267.591 275.797 268.386 274.919 269.05C274.065 269.714 273.033 270.224 271.824 270.58C270.614 270.936 269.25 271.114 267.732 271.114ZM283.952 270.758C283.169 270.758 282.564 270.556 282.137 270.153C281.734 269.726 281.532 269.121 281.532 268.338V248.093C281.532 247.31 281.734 246.717 282.137 246.314C282.564 245.887 283.169 245.673 283.952 245.673H296.654C297.247 245.673 297.698 245.828 298.006 246.136C298.338 246.444 298.504 246.883 298.504 247.452C298.504 248.046 298.338 248.508 298.006 248.84C297.698 249.149 297.247 249.303 296.654 249.303H285.908V256.205H295.871C296.488 256.205 296.95 256.36 297.259 256.668C297.567 256.976 297.721 257.427 297.721 258.02C297.721 258.613 297.567 259.064 297.259 259.372C296.95 259.68 296.488 259.835 295.871 259.835H285.908V267.129H296.654C297.247 267.129 297.698 267.283 298.006 267.591C298.338 267.9 298.504 268.35 298.504 268.943C298.504 269.536 298.338 269.987 298.006 270.295C297.698 270.604 297.247 270.758 296.654 270.758H283.952Z" fill="white"/>
</g>
</g>
<defs>
<filter id="filter0_d_0_1" x="0.59375" y="206.586" width="303.656" height="32.4375" filterUnits="userSpaceOnUse" color-interpolation-filters="sRGB">
<feFlood flood-opacity="0" result="BackgroundImageFix"/>
<feColorMatrix in="SourceAlpha" type="matrix" values="0 0 0 0 0 0 0 0 0 0 0 0 0 0 0 0 0 0 127 0" result="hardAlpha"/>
<feOffset dy="4"/>
<feGaussianBlur stdDeviation="2"/>
<feComposite in2="hardAlpha" operator="out"/>
<feColorMatrix type="matrix" values="0 0 0 0 0 0 0 0 0 0 0 0 0 0 0 0 0 0 0.25 0"/>
<feBlend mode="normal" in2="BackgroundImageFix" result="effect1_dropShadow_0_1"/>
<feBlend mode="normal" in="SourceGraphic" in2="effect1_dropShadow_0_1" result="shape"/>
</filter>
<filter id="filter1_d_0_1" x="0.8125" y="245.32" width="301.695" height="33.7969" filterUnits="userSpaceOnUse" color-interpolation-filters="sRGB">
<feFlood flood-opacity="0" result="BackgroundImageFix"/>
<feColorMatrix in="SourceAlpha" type="matrix" values="0 0 0 0 0 0 0 0 0 0 0 0 0 0 0 0 0 0 127 0" result="hardAlpha"/>
<feOffset dy="4"/>
<feGaussianBlur stdDeviation="2"/>
<feComposite in2="hardAlpha" operator="out"/>
<feColorMatrix type="matrix" values="0 0 0 0 0 0 0 0 0 0 0 0 0 0 0 0 0 0 0.25 0"/>
<feBlend mode="normal" in2="BackgroundImageFix" result="effect1_dropShadow_0_1"/>
<feBlend mode="normal" in="SourceGraphic" in2="effect1_dropShadow_0_1" result="shape"/>
</filter>
</defs>
</svg>
