<svg width="306" height="280" viewBox="0 0 306 280" fill="none" xmlns="http://www.w3.org/2000/svg">
<g id="Group 1" filter="url(#filter0_d_0_1)">
<path id="Black Tri 2" d="M225.638 61.0156L298.464 185.236H152.812L225.638 61.0156Z" fill="white" stroke="#4B3F3B" stroke-width="6.24222" stroke-linejoin="round"/>
<path id="White Tri 1" d="M152.81 4L256.847 185.232H48.7734L152.81 4Z" fill="white" stroke="#A7A7A7" stroke-width="6.24222" stroke-linejoin="bevel"/>
<path id="Vector" d="M168.836 34.2734L141.926 67.5907M170.268 85.6789L142.041 67.7961M128.915 110L170.731 86.0523M195.85 144.725L126.805 184.191M129.466 110.42L195.704 144.595" stroke="#FFB905" stroke-width="7.28259" stroke-linecap="round"/>
<path id="Black Tri 1" d="M152.81 4L256.847 185.232H48.7734L152.81 4Z" stroke="#4B3F3B" stroke-width="6.24222" stroke-linejoin="round"/>
<path id="Black Tri 3" d="M59.1825 95.7578L111.201 185.23H7.16406L59.1825 95.7578Z" fill="white" stroke="#4B3F3B" stroke-width="6.24222" stroke-linejoin="round"/>
<path id="BOURG-D&#226;&#128;&#153;OISANS" d="M7.88766 230.688C7.14608 230.688 6.57305 230.496 6.16855 230.114C5.78653 229.71 5.59551 229.137 5.59551 228.395V209.216C5.59551 208.474 5.78653 207.912 6.16855 207.53C6.57305 207.126 7.14608 206.923 7.88766 206.923H15.9776C17.6405 206.923 19.0562 207.171 20.2248 207.665C21.3933 208.159 22.281 208.867 22.8877 209.789C23.5169 210.71 23.8315 211.811 23.8315 213.092C23.8315 214.53 23.4158 215.744 22.5843 216.732C21.7529 217.721 20.618 218.384 19.1798 218.721V218.216C20.8428 218.463 22.1349 219.092 23.0562 220.103C23.9776 221.114 24.4383 222.429 24.4383 224.047C24.4383 226.159 23.7192 227.8 22.281 228.968C20.8652 230.114 18.8877 230.688 16.3484 230.688H7.88766ZM9.74159 227.418H15.809C17.3371 227.418 18.4607 227.126 19.1798 226.541C19.8989 225.935 20.2585 225.036 20.2585 223.845C20.2585 222.631 19.8989 221.732 19.1798 221.148C18.4607 220.564 17.3371 220.272 15.809 220.272H9.74159V227.418ZM9.74159 217.002H15.236C16.7191 217.002 17.8203 216.721 18.5394 216.159C19.281 215.575 19.6517 214.721 19.6517 213.598C19.6517 212.474 19.281 211.631 18.5394 211.069C17.8203 210.485 16.7191 210.193 15.236 210.193H9.74159V217.002ZM39.4544 231.025C37.1622 231.025 35.151 230.519 33.4207 229.508C31.7128 228.496 30.3869 227.081 29.4431 225.261C28.4993 223.418 28.0274 221.261 28.0274 218.789C28.0274 216.923 28.297 215.249 28.8364 213.766C29.3757 212.26 30.1397 210.98 31.1285 209.923C32.1398 208.845 33.342 208.025 34.7353 207.463C36.151 206.878 37.724 206.586 39.4544 206.586C41.769 206.586 43.7802 207.092 45.4881 208.103C47.196 209.092 48.5218 210.496 49.4657 212.317C50.4095 214.137 50.8814 216.283 50.8814 218.755C50.8814 220.62 50.6117 222.305 50.0724 223.811C49.5331 225.317 48.7578 226.609 47.7465 227.687C46.7578 228.766 45.5555 229.598 44.1398 230.182C42.7465 230.744 41.1847 231.025 39.4544 231.025ZM39.4544 227.317C40.9151 227.317 42.151 226.98 43.1623 226.305C44.196 225.631 44.9825 224.654 45.5218 223.373C46.0836 222.092 46.3645 220.564 46.3645 218.789C46.3645 216.092 45.7578 214.002 44.5443 212.519C43.3533 211.036 41.6566 210.294 39.4544 210.294C38.0162 210.294 36.7802 210.631 35.7465 211.305C34.7128 211.957 33.915 212.923 33.3532 214.204C32.8139 215.463 32.5442 216.991 32.5442 218.789C32.5442 221.463 33.151 223.553 34.3645 225.058C35.578 226.564 37.2746 227.317 39.4544 227.317ZM65.1451 231.025C63.5047 231.025 62.0552 230.811 60.7968 230.384C59.5608 229.957 58.5159 229.328 57.662 228.496C56.808 227.643 56.1676 226.586 55.7406 225.328C55.3136 224.07 55.1002 222.609 55.1002 220.946V208.845C55.1002 208.103 55.2799 207.553 55.6395 207.193C56.0215 206.833 56.5608 206.654 57.2575 206.654C57.9541 206.654 58.4822 206.833 58.8417 207.193C59.2238 207.553 59.4148 208.103 59.4148 208.845V220.912C59.4148 223.047 59.8979 224.654 60.8642 225.732C61.853 226.789 63.28 227.317 65.1451 227.317C67.0103 227.317 68.426 226.789 69.3923 225.732C70.3586 224.654 70.8418 223.047 70.8418 220.912V208.845C70.8418 208.103 71.0216 207.553 71.3811 207.193C71.7631 206.833 72.3025 206.654 72.9991 206.654C73.6732 206.654 74.1901 206.833 74.5497 207.193C74.9317 207.553 75.1227 208.103 75.1227 208.845V220.946C75.1227 223.148 74.7407 225.002 73.9766 226.508C73.235 228.013 72.1227 229.148 70.6395 229.912C69.1564 230.654 67.3249 231.025 65.1451 231.025ZM82.312 230.957C81.6153 230.957 81.076 230.766 80.694 230.384C80.3344 229.98 80.1547 229.429 80.1547 228.732V209.114C80.1547 208.395 80.3457 207.856 80.7277 207.496C81.1097 207.114 81.649 206.923 82.3457 206.923H90.4693C93.076 206.923 95.0873 207.553 96.503 208.811C97.9188 210.047 98.6266 211.789 98.6266 214.036C98.6266 215.496 98.3008 216.755 97.6491 217.811C97.0199 218.867 96.0985 219.676 94.885 220.238C93.6716 220.8 92.1996 221.081 90.4693 221.081L90.7727 220.575H91.885C92.8064 220.575 93.6041 220.8 94.2783 221.249C94.9749 221.699 95.5817 222.407 96.0985 223.373L98.6266 228.058C98.8963 228.53 99.0199 228.991 98.9974 229.44C98.9749 229.89 98.8064 230.261 98.4918 230.553C98.1772 230.822 97.7165 230.957 97.1098 230.957C96.503 230.957 96.0086 230.834 95.6266 230.586C95.2446 230.317 94.9075 229.912 94.6154 229.373L91.2109 223.103C90.8064 222.339 90.3232 221.834 89.7614 221.586C89.2221 221.317 88.5255 221.182 87.6715 221.182H84.4693V228.732C84.4693 229.429 84.2895 229.98 83.93 230.384C83.5704 230.766 83.0311 230.957 82.312 230.957ZM84.4693 217.98H89.7277C91.2783 217.98 92.4468 217.665 93.2334 217.036C94.0423 216.384 94.4468 215.418 94.4468 214.137C94.4468 212.878 94.0423 211.935 93.2334 211.305C92.4468 210.654 91.2783 210.328 89.7277 210.328H84.4693V217.98ZM114.525 231.025C111.896 231.025 109.672 230.53 107.851 229.541C106.054 228.553 104.683 227.148 103.739 225.328C102.795 223.508 102.323 221.35 102.323 218.856C102.323 216.968 102.593 215.272 103.132 213.766C103.694 212.26 104.492 210.98 105.525 209.923C106.582 208.845 107.863 208.025 109.368 207.463C110.874 206.878 112.582 206.586 114.492 206.586C115.75 206.586 117.009 206.744 118.267 207.058C119.548 207.35 120.75 207.856 121.874 208.575C122.256 208.822 122.503 209.126 122.615 209.485C122.75 209.845 122.773 210.216 122.683 210.598C122.593 210.957 122.424 211.272 122.177 211.541C121.93 211.811 121.615 211.98 121.233 212.047C120.874 212.114 120.469 212.025 120.02 211.777C119.166 211.283 118.301 210.923 117.424 210.699C116.548 210.474 115.57 210.362 114.492 210.362C112.829 210.362 111.424 210.699 110.278 211.373C109.132 212.025 108.267 212.98 107.683 214.238C107.121 215.496 106.84 217.036 106.84 218.856C106.84 221.62 107.503 223.721 108.829 225.159C110.155 226.598 112.121 227.317 114.728 227.317C115.627 227.317 116.537 227.227 117.458 227.047C118.379 226.867 119.278 226.62 120.155 226.305L119.312 228.227V221.047H115.604C115.042 221.047 114.604 220.901 114.29 220.609C113.997 220.317 113.851 219.923 113.851 219.429C113.851 218.912 113.997 218.519 114.29 218.249C114.604 217.98 115.042 217.845 115.604 217.845H121.166C121.728 217.845 122.155 218.002 122.447 218.317C122.761 218.609 122.919 219.036 122.919 219.598V227.789C122.919 228.283 122.818 228.699 122.615 229.036C122.436 229.373 122.132 229.62 121.705 229.777C120.716 230.137 119.582 230.44 118.301 230.688C117.02 230.912 115.761 231.025 114.525 231.025ZM129.065 223.339C128.57 223.339 128.155 223.182 127.817 222.867C127.503 222.53 127.346 222.126 127.346 221.654C127.346 221.159 127.503 220.755 127.817 220.44C128.155 220.126 128.57 219.968 129.065 219.968H136.244C136.716 219.968 137.11 220.126 137.424 220.44C137.761 220.755 137.93 221.159 137.93 221.654C137.93 222.126 137.761 222.53 137.424 222.867C137.11 223.182 136.716 223.339 136.244 223.339H129.065ZM144.826 230.688C144.085 230.688 143.512 230.496 143.107 230.114C142.725 229.71 142.534 229.137 142.534 228.395V209.216C142.534 208.474 142.725 207.912 143.107 207.53C143.512 207.126 144.085 206.923 144.826 206.923H151.366C155.343 206.923 158.411 207.946 160.568 209.991C162.748 212.036 163.838 214.968 163.838 218.789C163.838 220.699 163.557 222.395 162.995 223.878C162.456 225.339 161.647 226.575 160.568 227.586C159.512 228.598 158.208 229.373 156.658 229.912C155.13 230.429 153.366 230.688 151.366 230.688H144.826ZM146.849 227.114H151.096C152.489 227.114 153.691 226.946 154.703 226.609C155.736 226.249 156.59 225.732 157.265 225.058C157.961 224.362 158.478 223.496 158.815 222.463C159.152 221.407 159.321 220.182 159.321 218.789C159.321 216.002 158.635 213.923 157.265 212.553C155.894 211.182 153.838 210.496 151.096 210.496H146.849V227.114ZM170.203 215.182C169.911 215.541 169.596 215.744 169.259 215.789C168.944 215.834 168.664 215.777 168.416 215.62C168.169 215.44 168.034 215.193 168.012 214.878C167.989 214.541 168.135 214.182 168.45 213.8C168.899 213.238 169.203 212.676 169.36 212.114C169.517 211.553 169.596 211.058 169.596 210.631L169.765 211.744C168.978 211.744 168.338 211.519 167.843 211.069C167.371 210.62 167.135 210.013 167.135 209.249C167.135 208.508 167.36 207.912 167.81 207.463C168.259 206.991 168.866 206.755 169.63 206.755C170.416 206.755 171.034 207.025 171.484 207.564C171.933 208.081 172.158 208.833 172.158 209.822C172.158 210.362 172.102 210.923 171.989 211.508C171.9 212.069 171.708 212.665 171.416 213.294C171.147 213.901 170.742 214.53 170.203 215.182ZM186.96 231.025C184.668 231.025 182.656 230.519 180.926 229.508C179.218 228.496 177.892 227.081 176.948 225.261C176.005 223.418 175.533 221.261 175.533 218.789C175.533 216.923 175.802 215.249 176.342 213.766C176.881 212.26 177.645 210.98 178.634 209.923C179.645 208.845 180.847 208.025 182.241 207.463C183.656 206.878 185.229 206.586 186.96 206.586C189.274 206.586 191.286 207.092 192.993 208.103C194.701 209.092 196.027 210.496 196.971 212.317C197.915 214.137 198.387 216.283 198.387 218.755C198.387 220.62 198.117 222.305 197.578 223.811C197.038 225.317 196.263 226.609 195.252 227.687C194.263 228.766 193.061 229.598 191.645 230.182C190.252 230.744 188.69 231.025 186.96 231.025ZM186.96 227.317C188.42 227.317 189.656 226.98 190.668 226.305C191.701 225.631 192.488 224.654 193.027 223.373C193.589 222.092 193.87 220.564 193.87 218.789C193.87 216.092 193.263 214.002 192.05 212.519C190.859 211.036 189.162 210.294 186.96 210.294C185.521 210.294 184.286 210.631 183.252 211.305C182.218 211.957 181.42 212.923 180.859 214.204C180.319 215.463 180.05 216.991 180.05 218.789C180.05 221.463 180.656 223.553 181.87 225.058C183.083 226.564 184.78 227.317 186.96 227.317ZM204.931 230.957C204.235 230.957 203.695 230.766 203.313 230.384C202.954 229.98 202.774 229.429 202.774 228.732V208.878C202.774 208.159 202.954 207.609 203.313 207.227C203.695 206.845 204.235 206.654 204.931 206.654C205.628 206.654 206.156 206.845 206.516 207.227C206.898 207.609 207.089 208.159 207.089 208.878V228.732C207.089 229.429 206.909 229.98 206.549 230.384C206.19 230.766 205.65 230.957 204.931 230.957ZM220.478 231.025C219.49 231.025 218.501 230.946 217.512 230.789C216.523 230.654 215.591 230.44 214.714 230.148C213.838 229.834 213.051 229.452 212.355 229.002C211.95 228.732 211.669 228.407 211.512 228.025C211.355 227.643 211.299 227.272 211.343 226.912C211.411 226.53 211.557 226.204 211.782 225.935C212.029 225.643 212.332 225.463 212.692 225.395C213.051 225.328 213.445 225.429 213.872 225.699C214.86 226.283 215.905 226.71 217.006 226.98C218.108 227.249 219.265 227.384 220.478 227.384C222.254 227.384 223.546 227.092 224.355 226.508C225.164 225.901 225.568 225.126 225.568 224.182C225.568 223.395 225.276 222.777 224.692 222.328C224.13 221.878 223.152 221.508 221.759 221.216L218.051 220.44C215.916 219.991 214.321 219.238 213.265 218.182C212.231 217.103 211.714 215.687 211.714 213.935C211.714 212.834 211.939 211.834 212.388 210.935C212.838 210.036 213.467 209.26 214.276 208.609C215.108 207.957 216.085 207.463 217.209 207.126C218.355 206.766 219.613 206.586 220.984 206.586C222.332 206.586 223.613 206.755 224.827 207.092C226.04 207.429 227.13 207.923 228.096 208.575C228.456 208.822 228.692 209.126 228.804 209.485C228.939 209.845 228.973 210.204 228.905 210.564C228.838 210.901 228.681 211.193 228.433 211.44C228.186 211.687 227.872 211.834 227.49 211.878C227.13 211.923 226.714 211.811 226.242 211.541C225.411 211.069 224.568 210.732 223.714 210.53C222.86 210.328 221.939 210.227 220.95 210.227C219.917 210.227 219.029 210.373 218.287 210.665C217.546 210.957 216.973 211.373 216.568 211.912C216.186 212.429 215.995 213.047 215.995 213.766C215.995 214.575 216.265 215.227 216.804 215.721C217.343 216.193 218.265 216.564 219.568 216.834L223.242 217.609C225.467 218.081 227.119 218.822 228.197 219.834C229.299 220.845 229.849 222.193 229.849 223.878C229.849 224.957 229.624 225.935 229.175 226.811C228.748 227.687 228.119 228.44 227.287 229.07C226.478 229.699 225.501 230.182 224.355 230.519C223.209 230.856 221.917 231.025 220.478 231.025ZM233.624 230.957C233.084 230.957 232.646 230.834 232.309 230.586C231.994 230.339 231.803 230.013 231.736 229.609C231.669 229.182 231.747 228.71 231.972 228.193L240.871 208.474C241.163 207.822 241.511 207.362 241.916 207.092C242.343 206.8 242.826 206.654 243.365 206.654C243.882 206.654 244.343 206.8 244.747 207.092C245.174 207.362 245.534 207.822 245.826 208.474L254.759 228.193C255.006 228.71 255.096 229.182 255.028 229.609C254.961 230.036 254.77 230.373 254.455 230.62C254.141 230.845 253.725 230.957 253.208 230.957C252.579 230.957 252.084 230.811 251.725 230.519C251.388 230.204 251.084 229.732 250.815 229.103L248.624 224.013L250.444 225.193H236.219L238.039 224.013L235.882 229.103C235.59 229.755 235.287 230.227 234.972 230.519C234.657 230.811 234.208 230.957 233.624 230.957ZM243.298 211.609L238.579 222.834L237.702 221.755H248.961L248.118 222.834L243.365 211.609H243.298ZM260.494 230.957C259.842 230.957 259.336 230.777 258.977 230.418C258.64 230.058 258.471 229.541 258.471 228.867V208.811C258.471 208.114 258.64 207.586 258.977 207.227C259.336 206.845 259.797 206.654 260.359 206.654C260.876 206.654 261.258 206.755 261.505 206.957C261.775 207.137 262.089 207.451 262.449 207.901L275.359 224.654H274.482V208.71C274.482 208.058 274.651 207.553 274.988 207.193C275.348 206.833 275.853 206.654 276.505 206.654C277.157 206.654 277.651 206.833 277.988 207.193C278.325 207.553 278.494 208.058 278.494 208.71V228.935C278.494 229.564 278.336 230.058 278.022 230.418C277.707 230.777 277.28 230.957 276.741 230.957C276.224 230.957 275.808 230.856 275.494 230.654C275.202 230.452 274.876 230.126 274.516 229.676L261.64 212.923H262.482V228.867C262.482 229.541 262.314 230.058 261.977 230.418C261.64 230.777 261.145 230.957 260.494 230.957ZM291.877 231.025C290.889 231.025 289.9 230.946 288.911 230.789C287.922 230.654 286.99 230.44 286.113 230.148C285.237 229.834 284.45 229.452 283.754 229.002C283.349 228.732 283.068 228.407 282.911 228.025C282.754 227.643 282.698 227.272 282.742 226.912C282.81 226.53 282.956 226.204 283.181 225.935C283.428 225.643 283.731 225.463 284.091 225.395C284.45 225.328 284.844 225.429 285.271 225.699C286.259 226.283 287.304 226.71 288.405 226.98C289.507 227.249 290.664 227.384 291.877 227.384C293.653 227.384 294.945 227.092 295.754 226.508C296.563 225.901 296.967 225.126 296.967 224.182C296.967 223.395 296.675 222.777 296.091 222.328C295.529 221.878 294.552 221.508 293.158 221.216L289.45 220.44C287.316 219.991 285.72 219.238 284.664 218.182C283.63 217.103 283.113 215.687 283.113 213.935C283.113 212.834 283.338 211.834 283.787 210.935C284.237 210.036 284.866 209.26 285.675 208.609C286.507 207.957 287.484 207.463 288.608 207.126C289.754 206.766 291.012 206.586 292.383 206.586C293.731 206.586 295.012 206.755 296.226 207.092C297.439 207.429 298.529 207.923 299.495 208.575C299.855 208.822 300.091 209.126 300.203 209.485C300.338 209.845 300.372 210.204 300.304 210.564C300.237 210.901 300.08 211.193 299.832 211.44C299.585 211.687 299.271 211.834 298.889 211.878C298.529 211.923 298.113 211.811 297.641 211.541C296.81 211.069 295.967 210.732 295.113 210.53C294.259 210.328 293.338 210.227 292.349 210.227C291.316 210.227 290.428 210.373 289.686 210.665C288.945 210.957 288.372 211.373 287.967 211.912C287.585 212.429 287.394 213.047 287.394 213.766C287.394 214.575 287.664 215.227 288.203 215.721C288.743 216.193 289.664 216.564 290.967 216.834L294.641 217.609C296.866 218.081 298.518 218.822 299.596 219.834C300.698 220.845 301.248 222.193 301.248 223.878C301.248 224.957 301.023 225.935 300.574 226.811C300.147 227.687 299.518 228.44 298.686 229.07C297.877 229.699 296.9 230.182 295.754 230.519C294.608 230.856 293.316 231.025 291.877 231.025Z" fill="#4B3F3B"/>
<path id="MOUNTAIN BASE" d="M7.87455 271.042C7.21038 271.042 6.70039 270.853 6.34458 270.473C5.98877 270.094 5.81087 269.572 5.81087 268.908V247.524C5.81087 246.836 6.00063 246.314 6.38016 245.958C6.75969 245.579 7.28154 245.389 7.94571 245.389C8.53872 245.389 9.00127 245.507 9.33335 245.745C9.68916 245.958 10.0094 246.338 10.294 246.883L19.0824 263.144H17.9439L26.7323 246.883C27.0169 246.338 27.3253 245.958 27.6574 245.745C27.9895 245.507 28.452 245.389 29.045 245.389C29.7092 245.389 30.2192 245.579 30.575 245.958C30.9308 246.314 31.1087 246.836 31.1087 247.524V268.908C31.1087 269.572 30.9308 270.094 30.575 270.473C30.2429 270.853 29.7329 271.042 29.045 271.042C28.3809 271.042 27.8709 270.853 27.5151 270.473C27.1593 270.094 26.9814 269.572 26.9814 268.908V252.434H27.7641L20.2922 266.061C20.055 266.464 19.8059 266.761 19.545 266.951C19.2841 267.14 18.9283 267.235 18.4776 267.235C18.0269 267.235 17.6592 267.14 17.3746 266.951C17.0899 266.737 16.8409 266.441 16.6274 266.061L9.08429 252.398H9.93822V268.908C9.93822 269.572 9.76032 270.094 9.40452 270.473C9.07243 270.853 8.56244 271.042 7.87455 271.042ZM47.873 271.114C45.4535 271.114 43.3306 270.58 41.5041 269.512C39.7013 268.445 38.3018 266.951 37.3056 265.029C36.3093 263.084 35.8112 260.807 35.8112 258.198C35.8112 256.229 36.0958 254.462 36.6651 252.896C37.2344 251.307 38.0409 249.955 39.0846 248.84C40.152 247.702 41.4211 246.836 42.8917 246.243C44.3861 245.626 46.0466 245.318 47.873 245.318C50.3162 245.318 52.4392 245.851 54.242 246.919C56.0447 247.962 57.4442 249.445 58.4405 251.366C59.4367 253.288 59.9349 255.553 59.9349 258.162C59.9349 260.131 59.6502 261.91 59.0809 263.499C58.5116 265.089 57.6933 266.453 56.6259 267.591C55.5822 268.73 54.3131 269.607 52.8187 270.224C51.3481 270.817 49.6995 271.114 47.873 271.114ZM47.873 267.2C49.4149 267.2 50.7195 266.844 51.7869 266.132C52.878 265.421 53.7082 264.389 54.2775 263.037C54.8705 261.685 55.1671 260.072 55.1671 258.198C55.1671 255.351 54.5266 253.145 53.2457 251.58C51.9885 250.014 50.1976 249.232 47.873 249.232C46.3549 249.232 45.0503 249.587 43.9592 250.299C42.868 250.987 42.0259 252.007 41.4329 253.359C40.8636 254.687 40.579 256.3 40.579 258.198C40.579 261.021 41.2194 263.227 42.5003 264.816C43.7812 266.405 45.5721 267.2 47.873 267.2ZM74.991 271.114C73.2594 271.114 71.7295 270.888 70.4011 270.438C69.0965 269.987 67.9935 269.323 67.0921 268.445C66.1908 267.544 65.5147 266.429 65.064 265.1C64.6133 263.772 64.388 262.23 64.388 260.475V247.702C64.388 246.919 64.5778 246.338 64.9573 245.958C65.3605 245.579 65.9298 245.389 66.6652 245.389C67.4005 245.389 67.9579 245.579 68.3375 245.958C68.7407 246.338 68.9423 246.919 68.9423 247.702V260.439C68.9423 262.693 69.4523 264.389 70.4723 265.527C71.516 266.642 73.0222 267.2 74.991 267.2C76.9598 267.2 78.4542 266.642 79.4742 265.527C80.4942 264.389 81.0042 262.693 81.0042 260.439V247.702C81.0042 246.919 81.1939 246.338 81.5734 245.958C81.9767 245.579 82.546 245.389 83.2813 245.389C83.9929 245.389 84.5385 245.579 84.918 245.958C85.3213 246.338 85.5229 246.919 85.5229 247.702V260.475C85.5229 262.8 85.1197 264.757 84.3132 266.346C83.5304 267.935 82.3562 269.133 80.7907 269.939C79.2251 270.722 77.2919 271.114 74.991 271.114ZM92.9693 271.042C92.2814 271.042 91.7477 270.853 91.3681 270.473C91.0123 270.094 90.8344 269.548 90.8344 268.836V247.666C90.8344 246.931 91.0123 246.373 91.3681 245.994C91.7477 245.59 92.2339 245.389 92.8269 245.389C93.3725 245.389 93.7758 245.496 94.0367 245.709C94.3213 245.899 94.6534 246.231 95.0329 246.705L108.66 264.389H107.735V247.559C107.735 246.871 107.913 246.338 108.269 245.958C108.648 245.579 109.182 245.389 109.87 245.389C110.558 245.389 111.08 245.579 111.436 245.958C111.791 246.338 111.969 246.871 111.969 247.559V268.908C111.969 269.572 111.803 270.094 111.471 270.473C111.139 270.853 110.688 271.042 110.119 271.042C109.574 271.042 109.135 270.936 108.803 270.722C108.494 270.509 108.15 270.165 107.771 269.69L94.179 252.007H95.0685V268.836C95.0685 269.548 94.8906 270.094 94.5348 270.473C94.179 270.853 93.6572 271.042 92.9693 271.042ZM125.776 271.042C125.041 271.042 124.472 270.841 124.068 270.438C123.689 270.011 123.499 269.429 123.499 268.694V249.481H116.561C115.944 249.481 115.458 249.315 115.102 248.982C114.77 248.627 114.604 248.152 114.604 247.559C114.604 246.943 114.77 246.48 115.102 246.172C115.458 245.84 115.944 245.673 116.561 245.673H134.992C135.608 245.673 136.083 245.84 136.415 246.172C136.771 246.48 136.949 246.943 136.949 247.559C136.949 248.152 136.771 248.627 136.415 248.982C136.083 249.315 135.608 249.481 134.992 249.481H128.053V268.694C128.053 269.429 127.864 270.011 127.484 270.438C127.105 270.841 126.535 271.042 125.776 271.042ZM137.019 271.042C136.449 271.042 135.987 270.912 135.631 270.651C135.299 270.39 135.097 270.046 135.026 269.619C134.955 269.169 135.038 268.67 135.275 268.125L144.668 247.31C144.977 246.622 145.345 246.136 145.771 245.851C146.222 245.543 146.732 245.389 147.301 245.389C147.847 245.389 148.333 245.543 148.76 245.851C149.211 246.136 149.59 246.622 149.899 247.31L159.328 268.125C159.589 268.67 159.684 269.169 159.612 269.619C159.541 270.07 159.34 270.426 159.007 270.687C158.675 270.924 158.237 271.042 157.691 271.042C157.027 271.042 156.505 270.888 156.125 270.58C155.77 270.248 155.449 269.75 155.165 269.086L152.852 263.713L154.773 264.958H139.758L141.68 263.713L139.403 269.086C139.094 269.773 138.774 270.272 138.442 270.58C138.11 270.888 137.635 271.042 137.019 271.042ZM147.23 250.619L142.249 262.468L141.324 261.329H153.208L152.318 262.468L147.301 250.619H147.23ZM165.524 271.042C164.788 271.042 164.219 270.841 163.816 270.438C163.436 270.011 163.247 269.429 163.247 268.694V247.737C163.247 246.978 163.436 246.397 163.816 245.994C164.219 245.59 164.788 245.389 165.524 245.389C166.259 245.389 166.816 245.59 167.196 245.994C167.599 246.397 167.801 246.978 167.801 247.737V268.694C167.801 269.429 167.611 270.011 167.232 270.438C166.852 270.841 166.283 271.042 165.524 271.042ZM175.423 271.042C174.735 271.042 174.202 270.853 173.822 270.473C173.466 270.094 173.288 269.548 173.288 268.836V247.666C173.288 246.931 173.466 246.373 173.822 245.994C174.202 245.59 174.688 245.389 175.281 245.389C175.826 245.389 176.23 245.496 176.491 245.709C176.775 245.899 177.107 246.231 177.487 246.705L191.114 264.389H190.189V247.559C190.189 246.871 190.367 246.338 190.723 245.958C191.102 245.579 191.636 245.389 192.324 245.389C193.012 245.389 193.534 245.579 193.89 245.958C194.245 246.338 194.423 246.871 194.423 247.559V268.908C194.423 269.572 194.257 270.094 193.925 270.473C193.593 270.853 193.142 271.042 192.573 271.042C192.028 271.042 191.589 270.936 191.257 270.722C190.948 270.509 190.604 270.165 190.225 269.69L176.633 252.007H177.522V268.836C177.522 269.548 177.345 270.094 176.989 270.473C176.633 270.853 176.111 271.042 175.423 271.042ZM211.983 270.758C211.201 270.758 210.596 270.556 210.169 270.153C209.766 269.726 209.564 269.121 209.564 268.338V248.093C209.564 247.31 209.766 246.717 210.169 246.314C210.596 245.887 211.201 245.673 211.983 245.673H220.523C222.278 245.673 223.772 245.934 225.006 246.456C226.239 246.978 227.176 247.725 227.817 248.698C228.481 249.67 228.813 250.833 228.813 252.185C228.813 253.703 228.374 254.984 227.497 256.027C226.619 257.071 225.421 257.771 223.903 258.127V257.593C225.658 257.854 227.022 258.518 227.995 259.585C228.967 260.653 229.454 262.041 229.454 263.748C229.454 265.978 228.694 267.71 227.176 268.943C225.682 270.153 223.595 270.758 220.914 270.758H211.983ZM213.94 267.306H220.345C221.958 267.306 223.144 266.998 223.903 266.381C224.662 265.741 225.042 264.792 225.042 263.535C225.042 262.254 224.662 261.305 223.903 260.688C223.144 260.072 221.958 259.763 220.345 259.763H213.94V267.306ZM213.94 256.312H219.74C221.306 256.312 222.468 256.016 223.227 255.423C224.01 254.806 224.401 253.904 224.401 252.718C224.401 251.532 224.01 250.643 223.227 250.05C222.468 249.433 221.306 249.125 219.74 249.125H213.94V256.312ZM234.136 271.042C233.566 271.042 233.104 270.912 232.748 270.651C232.416 270.39 232.214 270.046 232.143 269.619C232.072 269.169 232.155 268.67 232.392 268.125L241.786 247.31C242.094 246.622 242.462 246.136 242.889 245.851C243.339 245.543 243.849 245.389 244.419 245.389C244.964 245.389 245.45 245.543 245.877 245.851C246.328 246.136 246.708 246.622 247.016 247.31L256.445 268.125C256.706 268.67 256.801 269.169 256.729 269.619C256.658 270.07 256.457 270.426 256.125 270.687C255.792 270.924 255.354 271.042 254.808 271.042C254.144 271.042 253.622 270.888 253.243 270.58C252.887 270.248 252.566 269.75 252.282 269.086L249.969 263.713L251.89 264.958H236.875L238.797 263.713L236.52 269.086C236.211 269.773 235.891 270.272 235.559 270.58C235.227 270.888 234.752 271.042 234.136 271.042ZM244.347 250.619L239.366 262.468L238.441 261.329H250.325L249.435 262.468L244.419 250.619H244.347ZM268.732 271.114C267.688 271.114 266.644 271.031 265.601 270.865C264.557 270.722 263.573 270.497 262.647 270.189C261.722 269.856 260.892 269.453 260.157 268.979C259.73 268.694 259.433 268.35 259.267 267.947C259.101 267.544 259.042 267.152 259.089 266.773C259.161 266.37 259.315 266.026 259.552 265.741C259.813 265.433 260.133 265.243 260.513 265.172C260.892 265.1 261.307 265.207 261.758 265.492C262.802 266.109 263.905 266.559 265.067 266.844C266.229 267.129 267.451 267.271 268.732 267.271C270.606 267.271 271.97 266.963 272.824 266.346C273.677 265.705 274.104 264.887 274.104 263.891C274.104 263.061 273.796 262.408 273.179 261.934C272.586 261.459 271.555 261.068 270.084 260.76L266.17 259.941C263.917 259.467 262.232 258.672 261.118 257.557C260.026 256.419 259.481 254.924 259.481 253.074C259.481 251.912 259.718 250.856 260.192 249.908C260.667 248.959 261.331 248.14 262.185 247.452C263.063 246.765 264.094 246.243 265.28 245.887C266.49 245.507 267.819 245.318 269.265 245.318C270.689 245.318 272.041 245.496 273.322 245.851C274.603 246.207 275.753 246.729 276.773 247.417C277.153 247.678 277.402 247.998 277.52 248.378C277.663 248.757 277.698 249.137 277.627 249.516C277.556 249.872 277.39 250.18 277.129 250.441C276.868 250.702 276.536 250.856 276.133 250.904C275.753 250.951 275.314 250.833 274.816 250.548C273.938 250.05 273.049 249.694 272.148 249.481C271.246 249.267 270.274 249.16 269.23 249.16C268.139 249.16 267.202 249.315 266.419 249.623C265.636 249.931 265.031 250.37 264.604 250.939C264.201 251.485 264 252.137 264 252.896C264 253.75 264.284 254.438 264.853 254.96C265.423 255.458 266.395 255.85 267.771 256.134L271.649 256.953C273.998 257.451 275.741 258.233 276.88 259.301C278.042 260.368 278.623 261.791 278.623 263.571C278.623 264.709 278.386 265.741 277.912 266.666C277.461 267.591 276.797 268.386 275.919 269.05C275.065 269.714 274.033 270.224 272.824 270.58C271.614 270.936 270.25 271.114 268.732 271.114ZM284.952 270.758C284.169 270.758 283.564 270.556 283.137 270.153C282.734 269.726 282.532 269.121 282.532 268.338V248.093C282.532 247.31 282.734 246.717 283.137 246.314C283.564 245.887 284.169 245.673 284.952 245.673H297.654C298.247 245.673 298.698 245.828 299.006 246.136C299.338 246.444 299.504 246.883 299.504 247.452C299.504 248.046 299.338 248.508 299.006 248.84C298.698 249.149 298.247 249.303 297.654 249.303H286.908V256.205H296.871C297.488 256.205 297.95 256.36 298.259 256.668C298.567 256.976 298.721 257.427 298.721 258.02C298.721 258.613 298.567 259.064 298.259 259.372C297.95 259.68 297.488 259.835 296.871 259.835H286.908V267.129H297.654C298.247 267.129 298.698 267.283 299.006 267.591C299.338 267.9 299.504 268.35 299.504 268.943C299.504 269.536 299.338 269.987 299.006 270.295C298.698 270.604 298.247 270.758 297.654 270.758H284.952Z" fill="#4B3F3B"/>
</g>
<defs>
<filter id="filter0_d_0_1" x="0.0390625" y="0.875" width="305.547" height="278.242" filterUnits="userSpaceOnUse" color-interpolation-filters="sRGB">
<feFlood flood-opacity="0" result="BackgroundImageFix"/>
<feColorMatrix in="SourceAlpha" type="matrix" values="0 0 0 0 0 0 0 0 0 0 0 0 0 0 0 0 0 0 127 0" result="hardAlpha"/>
<feOffset dy="4"/>
<feGaussianBlur stdDeviation="2"/>
<feComposite in2="hardAlpha" operator="out"/>
<feColorMatrix type="matrix" values="0 0 0 0 0 0 0 0 0 0 0 0 0 0 0 0 0 0 0.25 0"/>
<feBlend mode="normal" in2="BackgroundImageFix" result="effect1_dropShadow_0_1"/>
<feBlend mode="normal" in="SourceGraphic" in2="effect1_dropShadow_0_1" result="shape"/>
</filter>
</defs>
</svg>
